/* XPM */
static const char *apply_all_xpm[] = {
/* columns rows colors chars-per-pixel */
"32 32 240 2",
"   c #C4A000",
".  c #C5A100",
"X  c #C5A101",
"o  c #C5A200",
"O  c #C5A201",
"+  c #C4A102",
"@  c #C5A102",
"#  c #C5A103",
"$  c #C6A102",
"%  c #C5A202",
"&  c #C6A302",
"*  c #C6A203",
"=  c #C7A400",
"-  c #C6A304",
";  c #C6A307",
":  c #C7A605",
">  c #C8A505",
",  c #C8A506",
"<  c #C6A308",
"1  c #C9A708",
"2  c #CEAE0F",
"3  c #D1B000",
"4  c #D5B600",
"5  c #CBAB14",
"6  c #D0B011",
"7  c #D1B112",
"8  c #D2B213",
"9  c #D3B415",
"0  c #D4B516",
"q  c #D2B319",
"w  c #D3B41A",
"e  c #D4B61C",
"r  c #D5B71D",
"t  c #D6B81A",
"y  c #D8BA1D",
"u  c #DABC1E",
"i  c #DDC638",
"p  c #E1C62A",
"a  c #E3C92D",
"s  c #E2C830",
"d  c #E4CC31",
"f  c #E6CD30",
"g  c #E4CB34",
"h  c #E7CF36",
"j  c #E6CF37",
"k  c #E9D034",
"l  c #EBD337",
"z  c #EBD338",
"x  c #EAD13A",
"c  c #EDD63A",
"v  c #ECD43E",
"b  c #EFD83E",
"n  c #9C9977",
"m  c #AFA766",
"M  c #C9B94E",
"N  c #DDC753",
"B  c #E3CC48",
"V  c #F3DE43",
"C  c #F4DF44",
"Z  c #F3DF49",
"A  c #F7E44A",
"S  c #FBE84E",
"D  c #FBE954",
"F  c #DFCA6D",
"G  c #DFCB6D",
"H  c #E3CF66",
"J  c #204A87",
"K  c #214B88",
"L  c #224B88",
"P  c #224C89",
"I  c #224D89",
"U  c #214D8A",
"Y  c #234E8B",
"T  c #244E89",
"R  c #244E8A",
"E  c #244E8B",
"W  c #25508C",
"Q  c #27518C",
"!  c #28528F",
"~  c #29538F",
"^  c #2C548C",
"/  c #2E5994",
"(  c #2B5998",
")  c #2F5E9C",
"_  c #305993",
"`  c #325D97",
"'  c #37639B",
"]  c #36629C",
"[  c #3B68A2",
"{  c #3D69A3",
"}  c #3E6AA4",
"|  c #3F6CA5",
" . c #406393",
".. c #5D799B",
"X. c #406CA5",
"o. c #416DA6",
"O. c #426EA7",
"+. c #4271A9",
"@. c #4470A8",
"#. c #4571A9",
"$. c #4772AA",
"%. c #4874AB",
"&. c #527EB3",
"*. c #5E83B3",
"=. c #5583B9",
"-. c #5483BA",
";. c #5785BB",
":. c #5786BC",
">. c #5B86BB",
",. c #5A88BD",
"<. c #5A88BE",
"1. c #5C88BC",
"2. c #5D8ABF",
"3. c #6483AE",
"4. c #6684AF",
"5. c #6084B4",
"6. c #618BBE",
"7. c #608CBF",
"8. c #6E92BD",
"9. c #5D8BC0",
"0. c #608DC1",
"q. c #608EC2",
"w. c #648EC0",
"e. c #6390C3",
"r. c #6591C3",
"t. c #6290C4",
"y. c #6592C5",
"u. c #6593C6",
"i. c #6895C7",
"p. c #6896C8",
"a. c #6B98C9",
"s. c #6B99CA",
"d. c #6E9BCB",
"f. c #6E9BCC",
"g. c #719DCD",
"h. c #719ECE",
"j. c #74A0CF",
"k. c #888A85",
"l. c #898B86",
"z. c #898B87",
"x. c #898C87",
"c. c #8A8C87",
"v. c #8A8D87",
"b. c #8B8D88",
"n. c #8C8E89",
"m. c #8E8F8A",
"M. c #8F9081",
"N. c #8D908A",
"B. c #8F928C",
"V. c #949791",
"C. c #969894",
"Z. c #989A95",
"A. c #999B95",
"S. c #9C9F99",
"D. c #A1A39D",
"F. c #8797A7",
"G. c #A3A6A0",
"H. c #A5A8A1",
"J. c #A8AEAE",
"K. c #AFB2AC",
"L. c #B2B4AE",
"P. c #B2B5AF",
"I. c #B4B7B1",
"U. c #B4B7B2",
"Y. c #B5B8B3",
"T. c #B6B9B2",
"R. c #B6B9B3",
"E. c #B8BBB4",
"W. c #B9BBB6",
"Q. c #B9BDB6",
"!. c #BBBFB8",
"~. c #BCBFB9",
"^. c #BCBDBA",
"/. c #BCBEBB",
"(. c #BDC0B9",
"). c #BFC2BB",
"_. c #BFC1BD",
"`. c #E8D889",
"'. c #E9D989",
"]. c #E9DA8A",
"[. c #EADA8B",
"{. c #F3E58F",
"}. c #EFE192",
"|. c #F0E394",
" X c #F1E496",
".X c #F3E698",
"XX c #F4E89A",
"oX c #F5E99C",
"OX c #FDF29B",
"+X c #FDF29E",
"@X c #C0C3BC",
"#X c #C0C4BD",
"$X c #C1C4BE",
"%X c #C2C6BF",
"&X c #F9EFA1",
"*X c #FDF4A7",
"=X c #84A4C9",
"-X c #8CAACE",
";X c #8EACD1",
":X c #90AED2",
">X c #92B0D3",
",X c #94B2D5",
"<X c #96B3D6",
"1X c #97B5D7",
"2X c #99B7D9",
"3X c #9BB9DA",
"4X c #9DBBDB",
"5X c #9CBBDD",
"6X c #9FBDDC",
"7X c #9EBCDD",
"8X c #A1BEDE",
"9X c #A3C0DF",
"0X c #C4C7C0",
"qX c #C6C9C2",
"wX c #C7CBC4",
"eX c #C9CCC5",
"rX c #C9CDC6",
"tX c #CBCFC7",
"yX c #CDD1C9",
"uX c #CDD1CA",
"iX c #CED2CA",
"pX c #D0D3CC",
"aX c #D2D6CE",
"sX c #D3D7D0",
"dX c #D5D7D4",
"fX c #D7D9D5",
"gX c #D9DAD7",
"hX c #D9DBD7",
"jX c #DBDCD9",
"kX c #DCDEDB",
"lX c #DEE0DC",
"zX c #E0E2DE",
"xX c #E2E3E0",
"cX c #E3E5E2",
"vX c #E5E7E3",
"bX c #E6E8E3",
"nX c #E6E8E4",
"mX c #E7E9E5",
"MX c #E9EBE7",
"NX c None",
/* pixels */
"NXNXNXNXNXNXNXNXNXNXNXNXNXNXNXNXNXNXNXNXNXNXNXNXNXNXNXNXNXNXNXNX",
"NXNXNXNXNXNXNXNXNXNXNXNXNX+ $ X > % o .     . o @ : O $ + NXNXNX",
"NXNXNXNXNXNXNXNXNXNXNXNX# N H F {.- = 3 4 4 3 = - {.G H N # NXNX",
"NXNXNXNXNXNXNXNXNXNXNXNX< }.B 5 b c 6 &     & 6 c b 5 B }.< NXNX",
"NXNXNXNXNXNXNXNXNXNXNXNX< |.s u , y l C A A C l y , u s |.< NXNX",
"NXNXNXNXNXNXNXNXNXNXNXNX<  Xg a p t 2 1 * * 1 2 t p a g  X< NXNX",
"NXNXNXNXNXNXNXNXNXNXNXNX< .Xj i i d f f f f f f f f f h .X< NXNX",
"NXNXNXNXNXNXNXNXx.x.z.N.c.c.l.k.k.l.c.c.m.M.n m M k k x XX< NXNX",
"NXNXNXNXNXNXNXl.Y._./.hXb.n.Z.S.S.Z.n.b.hX^._.Y.l.z z v oX< NXNX",
"NXNXNXNXNXNXNXn.dXW.V.$X@XA.v.k.k.v.A.@X$XV.W.dXn.7 7 q `.< NXNX",
"NXNXNXNXNXNXNXn.fXL.H.m.G.~.eXuXuXeX~.G.m.H.L.fXn.8 8 w '.< NXNX",
"NXNXNXNXNXNXNXn.gXU.P.K.D.C.B.c.c.B.C.D.K.P.U.gXn.V V Z &X< NXNX",
"NXNXNXNXNXNXNXn.jXR.J.J.I.T.T.T.T.T.T.T.T.T.E.jXn.9 9 e ].< NXNX",
"NXNXNXU E P W P K J J J J K P Q ^  ...F.Q.Q.!.kXn.0 0 r [.< NXNX",
"NXNXL 5.8.4.-XR Y ( ) ) ( Y R -X3.8.*.L (.(.).lXn.S S D *X< NXNX",
"NXNXT ;X6._ >.1.` I J J I ` 1.>._ w.;XT #X#X%XzXn.S S D *X< NXNX",
"NXNXT :X-.+.! ' &.7.r.r.7.&.' ! +.;.:XT 0X0XqXxXn.S S D *X< NXNX",
"NXNXT >X:.[ =.| ] / ~ ~ / ] | =.[ ,.>XT wXwXrXcXn.OXOX+X*X; NXNX",
"NXNXT ,X<.{ <.{ <.<.<.<.<.<.{ <.{ 2.,XT tXtXyXvXn.          NXNX",
"NXNXT <X9.} 9.} 9.9.9.9.9.9.} 9.} 0.<XT iXiXpXmXn.NXNXNXNXNXNXNX",
"NXNXT 1Xq.X.q.X.q.q.q.q.q.q.X.q.X.e.1XT aXaXsXMXn.NXNXNXNXNXNXNX",
"NXNXT 2Xt.o.t.o.t.t.t.t.t.t.o.t.o.y.2XT aXaXsXMXn.NXNXNXNXNXNXNX",
"NXNXT 3Xu.O.u.O.u.u.u.u.u.u.O.u.O.i.3XT aXaXsXMXn.NXNXNXNXNXNXNX",
"NXNXT 4Xp.@.p.@.p.p.p.p.p.p.@.p.@.a.4XT bXbXnXMXb.NXNXNXNXNXNXNX",
"NXNXT 6Xs.#.s.#.s.s.s.s.s.s.#.s.#.d.6XT k.k.k.k.k.NXNXNXNXNXNXNX",
"NXNXT 8Xf.$.f.$.f.f.f.f.f.f.$.f.$.g.8XT NXNXNXNXNXNXNXNXNXNXNXNX",
"NXNXT 9Xh.%.h.%.h.h.h.h.h.h.%.h.%.j.9XT NXNXNXNXNXNXNXNXNXNXNXNX",
"NXNXT 9Xh.%.h.%.h.h.h.h.h.h.%.h.%.j.9XT NXNXNXNXNXNXNXNXNXNXNXNX",
"NXNXT 9Xh.%.h.%.h.h.h.h.h.h.%.h.%.j.9XT NXNXNXNXNXNXNXNXNXNXNXNX",
"NXNXT 9X5X=X5X=X5X5X5X5X5X5X=X5X=X7X9XT NXNXNXNXNXNXNXNXNXNXNXNX",
"NXNXJ J J J J J J J J J J J J J J J J J NXNXNXNXNXNXNXNXNXNXNXNX",
"NXNXNXNXNXNXNXNXNXNXNXNXNXNXNXNXNXNXNXNXNXNXNXNXNXNXNXNXNXNXNXNX"
};
