/* XPM */
static const char * multiple_graphs_xpm[] = {
"32 32 150 2",
"  	c None",
". 	c #F7F6F6",
"+ 	c #F7F7F6",
"@ 	c #F8F8F7",
"# 	c #F8F8F8",
"$ 	c #F9F8F8",
"% 	c #F9F9F8",
"& 	c #F9F9F9",
"* 	c #FAF9F9",
"= 	c #FAFAF9",
"- 	c #FAFAFA",
"; 	c #FBFBFA",
"> 	c #FBFBFB",
", 	c #ABA9A7",
"' 	c #8A8885",
") 	c #B5B3B1",
"! 	c #918F8D",
"~ 	c #763B07",
"{ 	c #753903",
"] 	c #773B04",
"^ 	c #92908E",
"/ 	c #969592",
"( 	c #C1A237",
"_ 	c #A66528",
": 	c #AB702D",
"< 	c #A66729",
"[ 	c #9D9B99",
"} 	c #A3A19F",
"| 	c #A9A7A5",
"1 	c #AFAEAC",
"2 	c #B5B4B2",
"3 	c #BBBAB8",
"4 	c #C1C0BF",
"5 	c #763A03",
"6 	c #A96C23",
"7 	c #C7C6C5",
"8 	c #7D4608",
"9 	c #E6F64C",
"0 	c #CECDCC",
"a 	c #753A03",
"b 	c #A15F0D",
"c 	c #AD742E",
"d 	c #AA6F2C",
"e 	c #D4D3D2",
"f 	c #9A4E06",
"g 	c #A66628",
"h 	c #A96A2B",
"i 	c #AF7731",
"j 	c #AE7631",
"k 	c #DAD9D8",
"l 	c #B99423",
"m 	c #A8682A",
"n 	c #AE752E",
"o 	c #BA8C4C",
"p 	c #C7A46B",
"q 	c #E0DFDF",
"r 	c #C5AC3C",
"s 	c #AB712D",
"t 	c #CEB470",
"u 	c #F3FABA",
"v 	c #C6AC3C",
"w 	c #E6E5E5",
"x 	c #AA6E2C",
"y 	c #C2A04F",
"z 	c #B78C3F",
"A 	c #A96B2C",
"B 	c #AD742D",
"C 	c #D4C46B",
"D 	c #EEF994",
"E 	c #C4A351",
"F 	c #ECECEB",
"G 	c #AB702C",
"H 	c #D5CD56",
"I 	c #EAF96A",
"J 	c #AE762C",
"K 	c #A86727",
"L 	c #AD752E",
"M 	c #DDDE60",
"N 	c #D8D35B",
"O 	c #E0E262",
"P 	c #AE7630",
"Q 	c #A76629",
"R 	c #F2F2F2",
"S 	c #A66517",
"T 	c #A36110",
"U 	c #A3620E",
"V 	c #D2CB3B",
"W 	c #E9FC4F",
"X 	c #C8B130",
"Y 	c #A3610F",
"Z 	c #A56916",
"` 	c #E7F655",
" .	c #B3842A",
"..	c #E1E65A",
"+.	c #C2A241",
"@.	c #AE762F",
"#.	c #AD732D",
"$.	c #F8F7F7",
"%.	c #793E0A",
"&.	c #E4F24B",
"*.	c #E7F64C",
"=.	c #E3EF49",
"-.	c #C1A329",
";.	c #E9FC4E",
">.	c #B99222",
",.	c #E5F14A",
"'.	c #CEC236",
").	c #E9FC51",
"!.	c #E5F255",
"~.	c #E4F15D",
"{.	c #E6F65A",
"].	c #E7E5E4",
"^.	c #FEFEFE",
"/.	c #A3600D",
"(.	c #DBDC42",
"_.	c #AD7917",
":.	c #CDBE35",
"<.	c #D6D23D",
"[.	c #A2610E",
"}.	c #A36212",
"|.	c #A05B0C",
"1.	c #C09D3A",
"2.	c #EFFC80",
"3.	c #A46410",
"4.	c #9B5007",
"5.	c #9C5408",
"6.	c #AA7119",
"7.	c #D5C658",
"8.	c #A15E0C",
"9.	c #9B4F07",
"0.	c #A3620F",
"a.	c #E0DE6D",
"b.	c #BD9C26",
"c.	c #CDAF64",
"d.	c #BD9244",
"e.	c #9E570A",
"f.	c #9F5A0B",
"g.	c #AD7428",
"h.	c #A25E0C",
"i.	c #9C5108",
"j.	c #A76918",
"k.	c #AA6E1F",
"l.	c #9C5308",
"m.	c #9A4F06",
"n.	c #A05A0C",
"o.	c #A15D0C",
"p.	c #BB9624",
"q.	c #9D5509",
"r.	c #9B5107",
"s.	c #EFEEED",
"                                                                ",
"                                                                ",
"    . + @ @ # $ % % % & * = = - - - - ; ; > >                   ",
"    , ' ' ' ' ' ' ' ' ' ' ' ' ' ' ' ' ' ' ' )                   ",
"    ! ~ { { { { { { { { { { ] { { { { { { ~ ^                   ",
"    / { ( _ _ _ ( _ _ _ ( _ : < ( _ _ _ ( { /                   ",
"    [ { _ . + @ @ # $ % % % & * = = - - - - ; ; > >             ",
"    } { _ , ' ' ' ' ' ' ' ' ' ' ' ' ' ' ' ' ' ' ' )             ",
"    | { _ ! ~ { { { { { { { { { { ] { { { { { { ~ ^             ",
"    1 { ( / { ( _ _ _ ( _ _ _ ( _ : < ( _ _ _ ( { /             ",
"    2 { _ [ { _ . + @ @ # $ % % % & * = = - - - - ; ; > >       ",
"    3 { _ } { _ , ' ' ' ' ' ' ' ' ' ' ' ' ' ' ' ' ' ' ' )       ",
"    4 5 6 | { _ ! ~ { { { { { { { { { { ] { { { { { { ~ ^       ",
"    7 8 9 1 { ( / { ( _ _ _ ( _ _ _ ( _ : < ( _ _ _ ( { /       ",
"    0 a b 2 { _ [ { _ _ _ _ _ _ _ _ _ _ c d _ _ _ _ _ { [       ",
"    e { f 3 { _ } { _ _ _ g h _ _ _ _ < i j < _ _ _ _ { }       ",
"    k { l 4 5 6 | { _ _ _ m n < _ _ _ h o p d _ _ _ _ { |       ",
"    q { f 7 8 9 1 { ( _ _ h r s _ _ ( d t u v < _ _ ( { 1       ",
"    w { f 0 a b 2 { _ _ _ x y z A _ _ B C D E d _ _ _ { 2       ",
"    F { f e { f 3 { _ _ _ G H I J K _ L M N O P Q _ _ { 3       ",
"    R { l k { l 4 5 6 S T U V W X U Y Z `  ...+.@.#.#.{ 4       ",
"    $.%.{ q { f 7 8 9 &.*.W =.-.W &.;.>.,.U '.).!.~.{.{ 7       ",
"    ].^.^.w { f 0 a b /.U (.W _.U U :.W <.[.b b b b }.{ 0       ",
"          F { f e { f f |.1.2.3.4.5.6.2.7.8.f f f f f { e       ",
"          R { l k { l f 9.0.a.[.f f b.c.d.e.l f f f l { k       ",
"          $.%.{ q { f f f f.g.h.f f i.j.k.l.f f f f f { q       ",
"          ].^.^.w { f f f 4.U |.f f f f.U m.f f f f f { w       ",
"                F { f f f f n.e.f f f 4.o.f f f f f f { F       ",
"                R { l f f f p.q.f f l f r.f l f f f l { R       ",
"                $.%.{ { { { { 5 { { { { { { { { { { { %.$.      ",
"                ].^.^.^.^.^.^.^.^.^.^.^.^.^.^.^.^.^.^.^.s.      ",
"                                                                "};
